<svg xmlns="http://www.w3.org/2000/svg" viewBox="0 0 1000 1000" xml:space="preserve"><path d="M924.7 10H75.3C39.3 10 10 39.3 10 75.3v849.3c0 36.1 29.3 65.3 65.3 65.3h849.3c36.1 0 65.3-29.3 65.3-65.3V75.3c.1-36-29.2-65.3-65.2-65.3zM765.1 420.9c-4.6 17.3-13 32-25.5 44.1-12.4 12.1-25.8 21.1-40.1 26.9-14.3 5.8-28.4 9.3-42.3 10.3-13.9 1.1-27-.1-39.2-3.4-12.2-3.4-22.6-8.1-31.1-14.4-8.5-6.3-14.5-13.5-18.1-21.9-3.5-8.4-3.4-17.1.3-26.3 7.9-20.4 10-37.5 6.5-51.3-3.5-13.7-10.9-24.2-22.1-31.5-11.2-7.3-25.1-11.5-41.7-12.5s-33.7 1.1-51.3 6.3c-17.6 5.2-34.9 13.6-51.6 25a149.87 149.87 0 0 0-42 43.4c-11.2 17.5-18.9 38.1-23 61.9-4.1 23.7-2.3 50.4 5.6 80 5.4 20 14.3 36 26.8 48.1 12.4 12.1 26.6 20.8 42.6 26.2 16 5.4 33.2 7.6 51.6 6.6s36.1-4.6 52.9-10.6c16.8-6 32.2-14.3 46.3-24.7 14.1-10.4 25.1-22.5 33-36.2 5.4-9.2 12-15.5 19.9-19.1 7.8-3.5 16-4.5 24.6-2.8 8.5 1.7 16.8 5.6 24.9 11.6 8.1 6 15 13.9 20.9 23.7 5.8 9.8 10 21.1 12.7 33.8 2.7 12.7 2.8 26.6.3 41.6-3.7 22.9-14.3 43-31.7 60.3-17.4 17.3-38.8 30.6-64.1 40-25.3 9.4-53.3 14.4-84 15-30.7.6-61.1-4.2-91.1-14.4-30.1-10.2-58.6-26.4-85.6-48.7-27-22.3-49.6-51.6-67.8-87.8a281.28 281.28 0 0 1-25.2-80.3c-4.4-28.1-4.5-56-.3-83.7 4.1-27.7 12.7-54.5 25.5-80.3 12.9-25.8 30.1-49 51.6-69.4 21.6-20.4 47.5-37.4 77.8-50.9 30.3-13.6 64.9-22.2 103.9-25.9 39-3.8 73.4-2.2 103.3 4.7 29.9 6.9 55.2 17.1 75.9 30.6 20.7 13.6 37.1 29.3 49.1 47.2 12.1 17.9 19.8 36.3 23.3 55 3.5 18.5 3 36.5-1.5 53.8z"/></svg>