<svg  xmlns="http://www.w3.org/2000/svg">
	<symbol id="phone" viewBox="0 0 24 24" fill="none"><path d="M5.74 5.29c.4-.4.77-.54 1.14-.54.12 0 .23.03.32.07h.01c.1.05.17.11.24.2l1.43 2.02 1.93 2.2.02-.04a1.83 1.83 0 0 0 .1-1.72c-.1-.24-.23-.47-.4-.7L8.68 4.15a2.05 2.05 0 0 0-.84-.7c-.3-.14-.64-.21-.96-.21a3.1 3.1 0 0 0-2.19.96c-.5.47-.86 1-1.1 1.6a4.88 4.88 0 0 0-.34 1.82c0 .95.22 1.92.64 2.9v.01a15 15 0 0 0 1.65 2.87c.7.97 1.47 1.87 2.31 2.71.85.84 1.76 1.62 2.72 2.32.95.7 1.92 1.25 2.9 1.67 1 .42 1.97.64 2.9.64.66 0 1.28-.12 1.86-.36a4.36 4.36 0 0 0 2.25-2.13c.18-.39.27-.8.27-1.2 0-.34-.07-.63-.18-.9v-.01l-.01-.01c-.15-.35-.4-.62-.7-.83l-2.65-1.88a3.84 3.84 0 0 0-.7-.39c-.26-.1-.52-.16-.78-.16-.35 0-.66.1-.94.27a2.6 2.6 0 0 0-.35.23l.99 1.13a.87.87 0 0 1 .08-.04l.02-.02h.02a.32.32 0 0 1 .18-.07c.04 0 .1.01.2.05.12.05.25.12.42.23L19 16.54c.11.08.16.14.18.2.05.12.07.22.07.32 0 .18-.04.37-.13.56A2.86 2.86 0 0 1 17.66 19c-.4.15-.82.24-1.28.24-.7 0-1.47-.16-2.32-.52-.86-.37-1.74-.87-2.6-1.5a22 22 0 0 1-4.7-4.69 13.51 13.51 0 0 1-1.5-2.58 5.98 5.98 0 0 1-.51-2.33c0-.45.08-.88.23-1.26.16-.39.4-.74.74-1.07h.01v-.01Z" fill="currentColor"/><path d="m14.06 13.72-.28.27 1.14.98.19-.19c.13-.13.23-.21.32-.27l-1-1.13c-.13.1-.25.22-.37.34Z" fill="currentColor"/><path d="M10.4 11.22c-.16-.19-.3-.35-.4-.5L8.6 9.5c-.24.24-.35.54-.35.84 0 .14.02.26.05.37v.04l.02.04.05.11v.03l.03.06.03.06c.18.33.46.72.83 1.15.37.43.77.86 1.2 1.3v.01c.45.43.88.84 1.32 1.21.44.38.83.65 1.17.83l.04.02.03.01h.01l.03.02.1.04.02.01c.18.07.34.08.47.08.34 0 .63-.13.85-.35l.42-.4-1.14-1-.2.2c-.2-.11-.48-.3-.83-.6a23.28 23.28 0 0 1-2.35-2.36Z" fill="currentColor"/><path d="m9.8 10.41.47-.5c.21-.2.4-.43.54-.67l-1.93-2.2.43.6a2 2 0 0 1 .24.41v.01c.04.1.05.17.05.2 0 .04 0 .1-.06.17v.02c-.07.11-.18.25-.33.41l-.01.01-.6.63 1.4 1.22a4.28 4.28 0 0 1-.2-.3Z" fill="currentColor"/><path fill-rule="evenodd" clip-rule="evenodd" d="M13.25 4c0-.41.34-.75.75-.75A6.75 6.75 0 0 1 20.75 10a.75.75 0 0 1-1.5 0c0-2.9-2.35-5.25-5.25-5.25a.75.75 0 0 1-.75-.75Zm0 3c0-.41.34-.75.75-.75 1.02 0 1.94.63 2.55 1.3.34.36.63.78.84 1.18.2.4.36.84.36 1.27a.75.75 0 0 1-1.5 0c0-.09-.04-.29-.2-.58a3.9 3.9 0 0 0-.6-.85c-.49-.53-1.03-.82-1.45-.82a.75.75 0 0 1-.75-.75Z" fill="currentColor"/></symbol>
	<symbol id="mail" viewBox="0 0 24 24" fill="none"><path fill-rule="evenodd" clip-rule="evenodd" d="M2.38 4.63a3 3 0 0 1 2.12-.88h15a3 3 0 0 1 3 3v10.5a3 3 0 0 1-3 3h-15a3 3 0 0 1-3-3V6.75a3 3 0 0 1 .88-2.12ZM3 6.75v.24a1.5 1.5 0 0 0 .71 1.28l7.5 4.62a1.5 1.5 0 0 0 1.58 0l7.5-4.62A1.5 1.5 0 0 0 21 6.99v-.24a1.5 1.5 0 0 0-1.5-1.5h-15A1.5 1.5 0 0 0 3 6.75Zm18 2.84-7.43 4.57a3 3 0 0 1-3.14 0L3 9.6v7.66a1.5 1.5 0 0 0 1.5 1.5h15a1.5 1.5 0 0 0 1.5-1.5V9.59Z" fill="currentColor"/></symbol>
	<symbol id="hero-1" viewBox="0 0 60 60" fill="none"><path d="M36.49 36.97H23.5c-4.64 0-6.05-1.42-6.05-6.06v-7.4c0-4.64 1.41-6.05 6.05-6.05h12.96c4.65 0 6.06 1.41 6.06 6.05v7.39c.01 4.65-1.4 6.07-6.04 6.07ZM23.5 19.2c-3.66 0-4.3.64-4.3 4.3v7.39c0 3.66.64 4.3 4.3 4.3h12.96c3.67 0 4.31-.64 4.31-4.3V23.5c0-3.66-.64-4.3-4.3-4.3H23.5Z" fill="currentColor"/><path d="M30 42.54a.88.88 0 0 1-.88-.87v-5.58c0-.48.4-.88.88-.88s.88.4.88.88v5.58c0 .47-.4.87-.88.87Zm11.67-10.5H18.33a.88.88 0 0 1-.87-.87c0-.48.4-.88.87-.88h23.34c.48 0 .87.4.87.88 0 .47-.4.87-.87.87Z" fill="currentColor"/><path d="M35.25 42.54h-10.5a.88.88 0 0 1-.88-.87c0-.48.4-.88.88-.88h10.5c.48 0 .88.4.88.88s-.4.87-.88.87Z" fill="currentColor"/><path d="M0 20A22 22 0 0 1 22-2h16a22 22 0 0 1 22 22c0-9.94-8.95-18-20-18H20C8.95 2 0 10.06 0 20Zm60 20a22 22 0 0 1-22 22H22A22 22 0 0 1 0 40c0 9.94 8.95 18 20 18h20c11.05 0 20-8.06 20-18ZM0 60V0v60ZM60 0v60V0Z" fill="currentColor" mask="url(#path-1-inside-1_12_148)"/></symbol>
	<symbol id="hero-2" viewBox="0 0 60 60" fill="none"><path fill-rule="evenodd" clip-rule="evenodd" d="M22.8 19.25c1.89-.94 4.44-1.5 7.2-1.5s5.31.56 7.2 1.5c1.83.92 3.3 2.35 3.3 4.19v13.12c0 1.84-1.47 3.27-3.3 4.19-1.89.94-4.44 1.5-7.2 1.5s-5.31-.56-7.2-1.5c-1.83-.92-3.3-2.35-3.3-4.19V23.44c0-1.84 1.47-3.27 3.3-4.19Zm-1.55 7.39v1.17c0 .82.69 1.8 2.34 2.62 1.6.8 3.86 1.32 6.41 1.32 2.55 0 4.82-.52 6.41-1.32 1.65-.82 2.34-1.8 2.34-2.62v-1.17c-.46.37-.99.7-1.55.98-1.89.95-4.44 1.5-7.2 1.5s-5.31-.55-7.2-1.5a8.52 8.52 0 0 1-1.55-.98ZM38.75 31c-.46.38-.99.7-1.55.99-1.89.94-4.44 1.5-7.2 1.5s-5.31-.56-7.2-1.5a8.52 8.52 0 0 1-1.55-.99v1.18c0 .82.69 1.8 2.34 2.62 1.6.8 3.86 1.31 6.41 1.31 2.55 0 4.82-.51 6.41-1.31 1.65-.83 2.34-1.8 2.34-2.62V31Zm0 4.38c-.46.37-.99.7-1.55.98-1.89.95-4.44 1.5-7.2 1.5s-5.31-.55-7.2-1.5a8.52 8.52 0 0 1-1.55-.98v1.17c0 .82.69 1.8 2.34 2.62 1.6.8 3.86 1.32 6.41 1.32 2.55 0 4.82-.52 6.41-1.32 1.65-.82 2.34-1.8 2.34-2.62V35.4Zm-17.5-11.95c0-.82.69-1.8 2.34-2.62 1.6-.8 3.86-1.32 6.41-1.32 2.55 0 4.82.52 6.41 1.32 1.65.82 2.34 1.8 2.34 2.62 0 .82-.69 1.8-2.34 2.62-1.6.8-3.86 1.32-6.41 1.32-2.55 0-4.82-.52-6.41-1.32-1.65-.83-2.34-1.8-2.34-2.62Z" fill="currentColor"/><path d="M0 20A22 22 0 0 1 22-2h16a22 22 0 0 1 22 22c0-9.94-8.95-18-20-18H20C8.95 2 0 10.06 0 20Zm60 20a22 22 0 0 1-22 22H22A22 22 0 0 1 0 40c0 9.94 8.95 18 20 18h20c11.05 0 20-8.06 20-18ZM0 60V0v60ZM60 0v60V0Z" fill="currentColor" mask="url(#path-1-inside-1_12_155)"/></symbol>
	<symbol id="hero-3" viewBox="0 0 60 60" fill="none"><path d="M30 42.55a5.94 5.94 0 0 1-3.52-1.1l-5.02-3.75A6.54 6.54 0 0 1 19.09 33V24.3c0-1.8 1.32-3.71 3.01-4.34l5.82-2.18a6.75 6.75 0 0 1 4.13 0l5.83 2.18a4.91 4.91 0 0 1 3 4.34v8.67a6.52 6.52 0 0 1-2.36 4.71l-5.02 3.74a5.75 5.75 0 0 1-3.5 1.12Zm-1.46-23.12-5.82 2.18a3.2 3.2 0 0 0-1.87 2.71v8.67c0 1.1.79 2.66 1.66 3.31l5.02 3.75c1.34 1 3.6 1 4.95 0l5.02-3.75A4.8 4.8 0 0 0 39.16 33V24.3c0-1.06-.88-2.32-1.87-2.7l-5.82-2.19a5.1 5.1 0 0 0-2.93.01Z" fill="currentColor"/><path d="M30 34.96a5.55 5.55 0 1 1 .01-11.1 5.55 5.55 0 0 1-.01 11.1Zm0-9.34a3.8 3.8 0 0 0 0 7.59 3.8 3.8 0 0 0 0-7.59Z" fill="currentColor"/><path d="M28.83 31.46a.87.87 0 0 1-.44-1.62l.89-.54c.09-.06.14-.15.14-.24v-1.09a.87.87 0 0 1 1.75-.01v1.09c0 .7-.39 1.38-1 1.75l-.9.53c-.12.1-.29.13-.44.13Z" fill="currentColor"/><path d="M0 20A22 22 0 0 1 22-2h16a22 22 0 0 1 22 22c0-9.94-8.95-18-20-18H20C8.95 2 0 10.06 0 20Zm60 20a22 22 0 0 1-22 22H22A22 22 0 0 1 0 40c0 9.94 8.95 18 20 18h20c11.05 0 20-8.06 20-18ZM0 60V0v60ZM60 0v60V0Z" fill="currentColor" mask="url(#path-1-inside-1_12_160)"/></symbol>
	<symbol id="hero-4" viewBox="0 0 60 60" fill="none"><path d="M30 34.38a4.38 4.38 0 1 1 0-8.76 4.38 4.38 0 0 1 0 8.75Zm0-7a2.63 2.63 0 1 0 0 5.25 2.63 2.63 0 0 0 0-5.26Z" fill="currentColor"/><path d="M33.74 41.89a2.86 2.86 0 0 1-2.45-1.39l-.13-.23c-.7-1.2-1.64-1.2-2.33 0l-.13.22a2.8 2.8 0 0 1-3.84 1.01l-2.01-1.15a3.1 3.1 0 0 1-1.15-4.23c.34-.59.44-1.13.24-1.46-.2-.34-.7-.54-1.39-.54a3.1 3.1 0 0 1-3.1-3.1v-2.05a3.1 3.1 0 0 1 3.1-3.09c.69 0 1.19-.2 1.39-.54.2-.33.11-.87-.24-1.46a3.1 3.1 0 0 1 1.15-4.23l2.02-1.15a2.83 2.83 0 0 1 3.85 1.01l.14.23c.69 1.2 1.63 1.2 2.32 0l.13-.22a2.82 2.82 0 0 1 3.86-1.01l2 1.15a3.1 3.1 0 0 1 1.15 4.23c-.34.6-.43 1.13-.23 1.47.2.34.7.53 1.38.53a3.1 3.1 0 0 1 3.1 3.1v2.05a3.1 3.1 0 0 1-3.1 3.09c-.69 0-1.19.2-1.38.54-.2.34-.12.87.23 1.47.4.7.52 1.55.3 2.34a3.01 3.01 0 0 1-1.45 1.88l-2.01 1.16a2.9 2.9 0 0 1-1.41.37ZM30 37.57c1.04 0 2 .66 2.67 1.81l.13.22c.14.25.37.42.65.5.28.06.56.03.8-.11l2.02-1.17a1.35 1.35 0 0 0 .5-1.83c-.67-1.15-.75-2.32-.24-3.22.52-.9 1.58-1.41 2.9-1.41.76 0 1.35-.6 1.35-1.34v-2.06c0-.73-.6-1.34-1.34-1.34-1.33 0-2.4-.51-2.9-1.41-.52-.9-.44-2.08.23-3.22a1.36 1.36 0 0 0-.49-1.83L34.26 20a1.07 1.07 0 0 0-1.47.39l-.13.22c-.66 1.15-1.63 1.8-2.67 1.8s-2-.65-2.67-1.8l-.13-.23a1.07 1.07 0 0 0-1.45-.38l-2.02 1.17a1.35 1.35 0 0 0-.5 1.83c.67 1.14.75 2.32.23 3.22-.5.9-1.57 1.41-2.9 1.41-.75 0-1.34.6-1.34 1.34v2.06c0 .73.6 1.34 1.34 1.34 1.33 0 2.4.51 2.9 1.41.52.9.44 2.08-.23 3.22a1.36 1.36 0 0 0 .49 1.83L25.73 40c.25.15.54.18.8.11.29-.07.52-.25.67-.5l.13-.22c.66-1.14 1.63-1.8 2.67-1.8Z" fill="currentColor"/><path d="M0 20A22 22 0 0 1 22-2h16a22 22 0 0 1 22 22c0-9.94-8.95-18-20-18H20C8.95 2 0 10.06 0 20Zm60 20a22 22 0 0 1-22 22H22A22 22 0 0 1 0 40c0 9.94 8.95 18 20 18h20c11.05 0 20-8.06 20-18ZM0 60V0v60ZM60 0v60V0Z" fill="currentColor" mask="url(#path-1-inside-1_12_167)"/></symbol>
	<symbol id="hero-5" viewBox="0 0 60 60" fill="none"><path d="M24.43 31.95a6.56 6.56 0 0 1 7.1 2.73l1.15-1.4a8.31 8.31 0 0 0-14.93 5.03v.14c0 .3.16.58.42.74 2.3 1.39 5 2.18 7.89 2.19l1.5-1.84a13.5 13.5 0 0 1-8.05-1.6 6.56 6.56 0 0 1 4.92-5.99Z" fill="currentColor"/><path d="M31.84 35.2c.44.82.72 1.75.77 2.74a13.5 13.5 0 0 1-5.05 1.6l-1.5 1.84 7.71-2.09-1.09-6.01-1.15 1.4a6.56 6.56 0 0 1 .3.51Z" fill="currentColor"/><path fill-rule="evenodd" clip-rule="evenodd" d="M33.77 39.3c.92.21 1.85.33 2.8.33v-.88.88c1.8 0 3.57-.41 5.19-1.2a.88.88 0 0 0 .48-.75 5.69 5.69 0 0 0-9.56-4.4l1.1 6.01Zm1.53-5.6c-.66.23-1.24.62-1.69 1.13.4.86.66 1.8.74 2.8a10.02 10.02 0 0 0 6.14-.55 3.94 3.94 0 0 0-5.2-3.37ZM36.56 22.13a3.94 3.94 0 1 0 0 7.87 3.94 3.94 0 0 0 0-7.88Zm0 1.75a2.19 2.19 0 1 0 0 4.37 2.19 2.19 0 0 0 0-4.38ZM26.06 18.63a4.81 4.81 0 1 0 0 9.62 4.81 4.81 0 0 0 0-9.63Zm0 1.75a3.06 3.06 0 1 0 0 6.12 3.06 3.06 0 0 0 0-6.13Z" fill="currentColor"/><path d="M26.06 41.38c2.71 0 5.38-.72 7.71-2.09l-7.71 2.09Z" fill="currentColor"/><path d="M0 20A22 22 0 0 1 22-2h16a22 22 0 0 1 22 22c0-9.94-8.95-18-20-18H20C8.95 2 0 10.06 0 20Zm60 20a22 22 0 0 1-22 22H22A22 22 0 0 1 0 40c0 9.94 8.95 18 20 18h20c11.05 0 20-8.06 20-18ZM0 60V0v60ZM60 0v60V0Z" fill="currentColor" mask="url(#path-1-inside-1_12_173)"/></symbol>
</svg>