<svg width="28" height="8" viewBox="0 0 28 8" fill="none" xmlns="http://www.w3.org/2000/svg">
<path d="M7.52724 5.86459C6.92267 5.86459 6.4612 5.69646 6.14282 5.36019C5.82801 5.02392 5.67061 4.54635 5.67061 3.92747C5.67061 3.61982 5.7189 3.34616 5.81549 3.10648C5.91208 2.86322 6.04444 2.65931 6.21257 2.49475C6.38071 2.32662 6.58104 2.19962 6.81356 2.11377C7.04609 2.02791 7.29829 1.98499 7.57017 1.98499C7.72757 1.98499 7.87066 1.99751 7.99945 2.02255C8.12823 2.04401 8.24092 2.07084 8.3375 2.10304C8.43409 2.13166 8.51458 2.16206 8.57897 2.19426C8.64337 2.22646 8.68987 2.2515 8.71849 2.26938L8.47702 2.9455C8.36255 2.88468 8.2284 2.83281 8.07457 2.78988C7.92432 2.74696 7.75261 2.72549 7.55944 2.72549C7.43065 2.72549 7.30366 2.74696 7.17845 2.78988C7.05682 2.83281 6.94771 2.90257 6.85113 2.99916C6.75812 3.09217 6.68299 3.2138 6.62575 3.36404C6.56852 3.51429 6.5399 3.69674 6.5399 3.91138C6.5399 4.08309 6.55779 4.24407 6.59356 4.39431C6.63291 4.54098 6.69372 4.66798 6.776 4.7753C6.86186 4.88262 6.97276 4.96848 7.10869 5.03287C7.24463 5.09368 7.40919 5.12409 7.60236 5.12409C7.72399 5.12409 7.8331 5.11693 7.92969 5.10262C8.02628 5.08832 8.11213 5.07222 8.18726 5.05433C8.26238 5.03287 8.32856 5.00961 8.3858 4.98457C8.44304 4.95953 8.49491 4.93628 8.54141 4.91482L8.77215 5.58556C8.6541 5.65711 8.48775 5.7215 8.27311 5.77874C8.05847 5.83598 7.80985 5.86459 7.52724 5.86459Z" fill="white"/>
<path d="M11.8456 5.78947C11.8062 5.66069 11.7615 5.52833 11.7114 5.39239C11.6649 5.25645 11.6184 5.12051 11.5719 4.98457H10.1231C10.0766 5.12051 10.0283 5.25645 9.9782 5.39239C9.93169 5.52833 9.88876 5.66069 9.84941 5.78947H8.98012C9.11964 5.38881 9.252 5.01856 9.37721 4.67871C9.50241 4.33887 9.62404 4.0187 9.74209 3.7182C9.86372 3.4177 9.98177 3.13331 10.0962 2.86501C10.2143 2.59313 10.3359 2.32841 10.4611 2.07084H11.2607C11.3823 2.32841 11.5021 2.59313 11.6202 2.86501C11.7382 3.13331 11.8563 3.4177 11.9743 3.7182C12.096 4.0187 12.2194 4.33887 12.3446 4.67871C12.4698 5.01856 12.6022 5.38881 12.7417 5.78947H11.8456ZM10.8421 2.9133C10.8242 2.96696 10.7974 3.0403 10.7616 3.13331C10.7259 3.22632 10.6847 3.33364 10.6382 3.45527C10.5917 3.5769 10.5398 3.71105 10.4826 3.85772C10.4289 4.00439 10.3735 4.15821 10.3163 4.31919H11.3734C11.3161 4.15821 11.2607 4.00439 11.207 3.85772C11.1533 3.71105 11.1015 3.5769 11.0514 3.45527C11.0049 3.33364 10.9638 3.22632 10.928 3.13331C10.8922 3.0403 10.8636 2.96696 10.8421 2.9133Z" fill="white"/>
<path d="M16.1743 2.07084V5.78947H15.3372V2.77915H13.9528V5.78947H13.1157V2.07084H16.1743Z" fill="white"/>
<path d="M18.6237 5.86459C18.0192 5.86459 17.5577 5.69646 17.2393 5.36019C16.9245 5.02392 16.7671 4.54635 16.7671 3.92747C16.7671 3.61982 16.8154 3.34616 16.912 3.10648C17.0086 2.86322 17.1409 2.65931 17.3091 2.49475C17.4772 2.32662 17.6775 2.19962 17.9101 2.11377C18.1426 2.02791 18.3948 1.98499 18.6667 1.98499C18.8241 1.98499 18.9672 1.99751 19.0959 2.02255C19.2247 2.04401 19.3374 2.07084 19.434 2.10304C19.5306 2.13166 19.6111 2.16206 19.6755 2.19426C19.7399 2.22646 19.7864 2.2515 19.815 2.26938L19.5735 2.9455C19.459 2.88468 19.3249 2.83281 19.1711 2.78988C19.0208 2.74696 18.8491 2.72549 18.6559 2.72549C18.5271 2.72549 18.4001 2.74696 18.2749 2.78988C18.1533 2.83281 18.0442 2.90257 17.9476 2.99916C17.8546 3.09217 17.7795 3.2138 17.7222 3.36404C17.665 3.51429 17.6364 3.69674 17.6364 3.91138C17.6364 4.08309 17.6543 4.24407 17.69 4.39431C17.7294 4.54098 17.7902 4.66798 17.8725 4.7753C17.9583 4.88262 18.0692 4.96848 18.2052 5.03287C18.3411 5.09368 18.5057 5.12409 18.6989 5.12409C18.8205 5.12409 18.9296 5.11693 19.0262 5.10262C19.1228 5.08832 19.2086 5.07222 19.2837 5.05433C19.3589 5.03287 19.425 5.00961 19.4823 4.98457C19.5395 4.95953 19.5914 4.93628 19.6379 4.91482L19.8686 5.58556C19.7506 5.65711 19.5842 5.7215 19.3696 5.77874C19.155 5.83598 18.9063 5.86459 18.6237 5.86459Z" fill="white"/>
<path d="M22.942 5.78947C22.9027 5.66069 22.858 5.52833 22.8079 5.39239C22.7614 5.25645 22.7149 5.12051 22.6684 4.98457H21.2196C21.1731 5.12051 21.1248 5.25645 21.0747 5.39239C21.0282 5.52833 20.9853 5.66069 20.9459 5.78947H20.0766C20.2161 5.38881 20.3485 5.01856 20.4737 4.67871C20.5989 4.33887 20.7205 4.0187 20.8386 3.7182C20.9602 3.4177 21.0783 3.13331 21.1927 2.86501C21.3108 2.59313 21.4324 2.32841 21.5576 2.07084H22.3572C22.4788 2.32841 22.5986 2.59313 22.7167 2.86501C22.8347 3.13331 22.9528 3.4177 23.0708 3.7182C23.1925 4.0187 23.3159 4.33887 23.4411 4.67871C23.5663 5.01856 23.6987 5.38881 23.8382 5.78947H22.942ZM21.9386 2.9133C21.9207 2.96696 21.8939 3.0403 21.8581 3.13331C21.8223 3.22632 21.7812 3.33364 21.7347 3.45527C21.6882 3.5769 21.6363 3.71105 21.5791 3.85772C21.5254 4.00439 21.47 4.15821 21.4127 4.31919H22.4698C22.4126 4.15821 22.3572 4.00439 22.3035 3.85772C22.2498 3.71105 22.198 3.5769 22.1479 3.45527C22.1014 3.33364 22.0602 3.22632 22.0245 3.13331C21.9887 3.0403 21.9601 2.96696 21.9386 2.9133Z" fill="white"/>
<path d="M26.4552 2.07084H27.2923V5.78947H26.4552V4.21187H25.0493V5.78947H24.2122V2.07084H25.0493V3.49283H26.4552V2.07084Z" fill="white"/>
<path d="M0.708115 2.13446V0.727097L1.95977 1.37157L4.1654 2.83886V4.52147L0.708115 2.13446Z" fill="#F18E54"/>
<path fill-rule="evenodd" clip-rule="evenodd" d="M0.708061 4.38338V4.88589L4.16534 7.27292V6.77039L0.708061 4.38338Z" fill="white"/>
<path d="M0.708066 2.8166L0.707733 3.68086L4.16502 6.06786L4.16535 5.20361L0.708066 2.8166Z" fill="#F18E54"/>
<path d="M1.95977 1.37157L0.708115 0.727097H2.44952L1.95977 1.37157Z" fill="#F18E54"/>
</svg>
